:FULLY-SPECIFIED
:FORCE-ALL-JOINTS-BE-3DOF
:DEGREES
102
root 7.04469 16.834 -27.0986 1.58846 6.86527 -3.14803
lfemur -23.3703 9.35962 -13.8782
ltibia 38.3423 -0 0
lfoot -16.2061 -2.98162 -0.22727
ltoes 26.4487 -0 0
rfemur -36.0761 -5.56645 15.1384
rtibia 36.7896 -0 0
rfoot -11.8394 -5.10041 2.1915
rtoes -10.5132 0 0
lowerback 4.73244 0.94182 0.944402
upperback 1.117 1.41344 1.07757
thorax -1.24331 0.659607 0.887358
lowerneck -11.1309 -2.93592 2.30938
upperneck -2.52862 -4.16949 1.23561
head 1.06621 -2.07393 -0.155536
lclavicle -3.54849e-14 1.0511e-14 -4.07135e-31
lhumerus -41.4927 -11.2287 92.0329
lradius 46.3992 -0 0
lwrist 10.3049 0 0
lhand -2.95682 4.45206 0.188331
lfingers 7.12502 -0 0
lthumb 22.7303 32.8591 0.0926748
rclavicle -3.54849e-14 1.0511e-14 -4.07135e-31
rhumerus -38.7253 0.0856921 -74.5425
rradius 52.6895 -0 0
rwrist 4.78973 0 0
rhand -11.3645 -18.8804 0.311675
rfingers 7.12502 -0 0
rthumb 14.6346 -47.8435 0.427762
103
root 7.10723 16.8437 -27.0606 0.849866 7.11656 -2.94243
lfemur -22.1605 9.2295 -14.092
ltibia 37.6472 -0 0
lfoot -15.9699 -3.57723 -0.229728
ltoes 26.9488 -0 0
rfemur -37.9525 -5.94179 14.5563
rtibia 37.5779 -0 0
rfoot -10.5018 -4.07402 2.21548
rtoes -10.597 0 0
lowerback 5.3837 0.732776 0.740188
upperback 1.3613 1.13377 1.11893
thorax -1.35236 0.520076 1.05674
lowerneck -11.1869 -2.89009 2.23104
upperneck -2.30516 -4.10537 1.21647
head 1.15017 -2.03903 -0.149679
lclavicle -3.7652e-14 1.0395e-14 -4.1153e-31
lhumerus -41.39 -11.4514 92.0636
lradius 46.5374 -0 0
lwrist 10.3923 0 0
lhand -2.29059 4.62708 0.190368
lfingers 7.12502 -0 0
lthumb 23.3688 32.949 0.0936772
rclavicle -3.7652e-14 1.0395e-14 -4.1153e-31
rhumerus -38.8752 -0.164741 -73.3142
rradius 53.4014 -0 0
rwrist 4.58062 0 0
rhand -10.3643 -18.687 0.315056
rfingers 7.12502 -0 0
rthumb 15.5973 -47.5677 0.432402
104
root 7.16991 16.8535 -27.0225 0.110013 7.37106 -2.73951
lfemur -20.9478 9.10355 -14.309
ltibia 36.9506 -0 0
lfoot -15.7331 -4.17427 -0.229728
ltoes 27.45 -0 0
rfemur -39.8308 -6.33684 13.9851
rtibia 38.3681 -0 0
rfoot -9.16077 -3.04488 2.21548
rtoes -10.681 0 0
lowerback 6.03722 0.525576 0.533125
upperback 1.60596 0.85326 1.15918
thorax -1.46209 0.380537 1.22679
lowerneck -11.243 -2.84422 2.15249
upperneck -2.08121 -4.04101 1.19754
head 1.23433 -2.00405 -0.143756
lclavicle -3.98243e-14 1.02786e-14 -4.1153e-31
lhumerus -41.2871 -11.6746 92.094
lradius 46.676 -0 0
lwrist 10.48 0 0
lhand -1.62277 4.80254 0.190368
lfingers 7.12502 -0 0
lthumb 24.0089 33.039 0.0936772
rclavicle -3.98243e-14 1.02786e-14 -4.1153e-31
rhumerus -39.0307 -0.412488 -72.0822
rradius 54.115 -0 0
rwrist 4.37101 0 0
rhand -9.36165 -18.4931 0.315056
rfingers 7.12502 -0 0
rthumb 16.5623 -47.2912 0.432402
105
root 7.23244 16.8633 -26.9845 -0.627603 7.62753 -2.54028
lfemur -19.7379 8.98246 -14.528
ltibia 36.2555 -0 0
lfoot -15.4969 -4.76988 -0.22727
ltoes 27.9501 -0 0
rfemur -41.7021 -6.74927 13.428
rtibia 39.1564 -0 0
rfoot -7.82314 -2.01849 2.1915
rtoes -10.7648 0 0
lowerback 6.68992 0.321238 0.324218
upperback 1.84983 0.573252 1.19814
thorax -1.57196 0.241655 1.3967
lowerneck -11.2991 -2.79854 2.07407
upperneck -1.85783 -3.97674 1.17891
head 1.3183 -1.96917 -0.137797
lclavicle -4.19914e-14 1.01626e-14 -4.07135e-31
lhumerus -41.1844 -11.8974 92.1239
lradius 46.8142 -0 0
lwrist 10.5674 0 0
lhand -0.956542 4.97756 0.188331
lfingers 7.12502 -0 0
lthumb 24.6474 33.1289 0.0926748
rclavicle -4.19914e-14 1.01626e-14 -4.07135e-31
rhumerus -39.1912 -0.656256 -70.8525
rradius 54.8269 -0 0
rwrist 4.1619 0 0
rhand -8.3614 -18.2997 0.311675
rfingers 7.12502 -0 0
rthumb 17.5249 -47.0154 0.427762
106
root 7.29453 16.873 -26.9468 -1.35949 7.88465 -2.34567
lfemur -18.5366 8.86678 -14.7479
ltibia 35.5655 -0 0
lfoot -15.2625 -5.36121 -0.222401
ltoes 28.4467 -0 0
rfemur -43.5576 -7.1764 12.8882
rtibia 39.9391 -0 0
rfoot -6.49576 -1.0003 2.14402
rtoes -10.848 0 0
lowerback 7.33867 0.120731 0.11452
upperback 2.09175 0.295088 1.23565
thorax -1.68146 0.104091 1.56566
lowerneck -11.3548 -2.75327 1.99618
upperneck -1.63609 -3.91285 1.16066
head 1.40166 -1.93455 -0.131829
lclavicle -4.4143e-14 1.00474e-14 -3.98429e-31
lhumerus -41.0826 -12.1186 92.1533
lradius 46.9514 -0 0
lwrist 10.6542 0 0
lhand -0.295091 5.15129 0.184295
lfingers 7.12502 -0 0
lthumb 25.2813 33.2181 0.0906892
rclavicle -4.4143e-14 1.00474e-14 -3.98429e-31
rhumerus -39.3557 -0.894817 -69.6309
rradius 55.5337 -0 0
rwrist 3.95428 0 0
rhand -7.36833 -18.1077 0.304978
rfingers 7.12502 -0 0
rthumb 18.4806 -46.7417 0.418572
107
root 7.35587 16.8825 -26.9096 -2.08217 8.14108 -2.15655
lfemur -17.3496 8.75698 -14.9674
ltibia 34.8837 -0 0
lfoot -15.0309 -5.94541 -0.215214
ltoes 28.9372 -0 0
rfemur -45.3885 -7.61521 12.3684
rtibia 40.7123 -0 0
rfoot -5.18542 0.00428133 2.07398
rtoes -10.9302 0 0
lowerback 7.98034 -0.0750218 -0.0948747
upperback 2.33058 0.0201166 1.27154
thorax -1.79003 -0.0315017 1.73284
lowerneck -11.41 -2.70861 1.91918
upperneck -1.41705 -3.84967 1.14287
head 1.48402 -1.90035 -0.125884
lclavicle -4.62687e-14 9.9335e-15 -3.85577e-31
lhumerus -40.982 -12.3372 92.1819
lradius 47.0869 -0 0
lwrist 10.74 0 0
lhand 0.358397 5.32288 0.178338
lfingers 7.12502 -0 0
lthumb 25.9076 33.3061 0.0877586
rclavicle -4.62687e-14 9.9335e-15 -3.85577e-31
rhumerus -39.5231 -1.12701 -68.4232
rradius 56.2321 -0 0
rwrist 3.74916 0 0
rhand -6.38722 -17.9182 0.295096
rfingers 7.12502 -0 0
rthumb 19.4248 -46.4714 0.405011
108
root 7.41617 16.8919 -26.873 -2.79217 8.39543 -1.97373
lfemur -16.1828 8.65345 -15.1853
ltibia 34.2135 -0 0
lfoot -14.8034 -6.51963 -0.205849
ltoes 29.4194 -0 0
rfemur -47.1861 -8.06238 11.8709
rtibia 41.4724 -0 0
rfoot -3.89883 0.989892 1.98279
rtoes -11.011 0 0
lowerback 8.61178 -0.265143 -0.302831
upperback 2.56518 -0.250313 1.30571
thorax -1.89714 -0.164476 1.89742
lowerneck -11.4642 -2.66478 1.84345
upperneck -1.20177 -3.78749 1.12563
head 1.56499 -1.86674 -0.119993
lclavicle -4.83582e-14 9.8216e-15 -3.68828e-31
lhumerus -40.8831 -12.5521 92.2097
lradius 47.2202 -0 0
lwrist 10.8243 0 0
lhand 1.00074 5.49147 0.170575
lfingers 7.12502 -0 0
lthumb 26.5232 33.3927 0.0839397
rclavicle -4.83582e-14 9.8216e-15 -3.68828e-31
rhumerus -39.6925 -1.35177 -67.2353
rradius 56.9185 -0 0
rwrist 3.54753 0 0
rhand -5.42285 -17.7321 0.28222
rfingers 7.12502 -0 0
rthumb 20.3529 -46.2061 0.387342
109
root 7.47513 16.9011 -26.8371 -3.48603 8.64627 -1.79795
lfemur -15.0419 8.5565 -15.4004
ltibia 33.5583 -0 0
lfoot -14.581 -7.08103 -0.194488
ltoes 29.8909 -0 0
rfemur -48.9419 -8.51432 11.3978
rtibia 42.2156 -0 0
rfoot -2.64267 1.95128 1.87229
rtoes -11.09 0 0
lowerback 9.22984 -0.448803 -0.508174
upperback 2.7944 -0.51485 1.33805
thorax -2.00224 -0.29419 2.05858
lowerneck -11.5173 -2.622 1.76937
upperneck -0.991325 -3.72664 1.109
head 1.64415 -1.83389 -0.114187
lclavicle -5.04012e-14 9.71218e-15 -3.48506e-31
lhumerus -40.7864 -12.7623 92.2365
lradius 47.3505 -0 0
lwrist 10.9068 0 0
lhand 1.62875 5.65621 0.161159
lfingers 7.12502 -0 0
lthumb 27.1252 33.4773 0.0793069
rclavicle -5.04012e-14 9.71218e-15 -3.48506e-31
rhumerus -39.8625 -1.56808 -66.0731
rradius 57.5896 -0 0
rwrist 3.3504 0 0
rhand -4.48 -17.5504 0.266605
rfingers 7.12502 -0 0
rthumb 21.2602 -45.9469 0.365913
110
root 7.53244 16.91 -26.8023 -4.16026 8.89212 -1.62992
lfemur -13.9327 8.46631 -15.6112
ltibia 32.9213 -0 0
lfoot -14.3649 -7.62675 -0.181355
ltoes 30.3493 -0 0
rfemur -50.6472 -8.96722 10.9511
rtibia 42.938 -0 0
rfoot -1.42349 2.8833 1.7447
rtoes -11.1668 0 0
lowerback 9.83134 -0.625216 -0.709695
upperback 3.0171 -0.772141 1.36847
thorax -2.10476 -0.420009 2.21549
lowerneck -11.569 -2.58048 1.69732
upperneck -0.786767 -3.66742 1.09304
head 1.72111 -1.80196 -0.108499
lclavicle -5.23874e-14 9.60581e-15 -3.2501e-31
lhumerus -40.6925 -12.9667 92.2622
lradius 47.4771 -0 0
lwrist 10.9869 0 0
lhand 2.23926 5.81626 0.150274
lfingers 7.12502 -0 0
lthumb 27.7103 33.5594 0.0739516
rclavicle -5.23874e-14 9.60581e-15 -3.2501e-31
rhumerus -40.0321 -1.77501 -64.9425
rradius 58.2421 -0 0
rwrist 3.15875 0 0
rhand -3.56345 -17.374 0.24856
rfingers 7.12502 -0 0
rthumb 22.1421 -45.6953 0.34115
111
root 7.58782 16.9187 -26.7687 -4.81143 9.13149 -1.47026
lfemur -12.8609 8.38303 -15.8165
ltibia 32.3058 -0 0
lfoot -14.1563 -8.15395 -0.166713
ltoes 30.7921 -0 0
rfemur -52.2935 -9.41709 10.532
rtibia 43.6361 -0 0
rfoot -0.247783 3.78095 1.60266
rtoes -11.241 0 0
lowerback 10.4131 -0.79364 -0.906153
upperback 3.23215 -1.02083 1.39692
thorax -2.20414 -0.541301 2.3673
lowerneck -11.619 -2.54042 1.62768
upperneck -0.589162 -3.61015 1.07783
head 1.79547 -1.77112 -0.102963
lclavicle -5.43063e-14 9.50304e-15 -2.98806e-31
lhumerus -40.6018 -13.1642 92.2868
lradius 47.5995 -0 0
lwrist 11.0643 0 0
lhand 2.82907 5.97077 0.138138
lfingers 7.12502 -0 0
lthumb 28.2757 33.6388 0.0679808
rclavicle -5.43063e-14 9.50304e-15 -2.98806e-31
rhumerus -40.1997 -1.97173 -63.8494
rradius 58.8725 -0 0
rwrist 2.97359 0 0
rhand -2.67797 -17.2039 0.228448
rfingers 7.12502 -0 0
rthumb 22.9941 -45.4526 0.31355
112
root 7.64096 16.9269 -26.7364 -5.43606 9.36286 -1.31954
lfemur -11.8324 8.3067 -16.0149
ltibia 31.7152 -0 0
lfoot -13.9562 -8.6598 -0.150858
ltoes 31.217 -0 0
rfemur -53.8721 -9.85977 10.1419
rtibia 44.3059 -0 0
rfoot 0.878113 4.63935 1.44909
rtoes -11.3123 0 0
lowerback 10.9719 -0.953373 -1.09628
upperback 3.43841 -1.25957 1.42334
thorax -2.29981 -0.657443 2.51317
lowerneck -11.6669 -2.50204 1.56082
upperneck -0.39957 -3.55515 1.06342
head 1.86682 -1.74153 -0.0976128
lclavicle -5.61477e-14 9.40442e-15 -2.70425e-31
lhumerus -40.5147 -13.3537 92.31
lradius 47.7169 -0 0
lwrist 11.1386 0 0
lhand 3.39501 6.11892 0.124998
lfingers 7.12502 -0 0
lthumb 28.8182 33.7148 0.0615155
rclavicle -5.61477e-14 9.40442e-15 -2.70425e-31
rhumerus -40.3642 -2.15747 -62.7999
rradius 59.4774 -0 0
rwrist 2.79591 0 0
rhand -1.82834 -17.0409 0.206679
rfingers 7.12502 -0 0
rthumb 23.8115 -45.2201 0.283675
